<svg width="91" height="32" fill="none" xmlns="http://www.w3.org/2000/svg"><path fill-rule="evenodd" clip-rule="evenodd" d="M75.337 9h2.806c4.104 0 7.12 2.999 7.12 7 0 4-3.02 6.998-7.12 6.998h-2.806c-4.108 0-7.135-3-7.135-6.998s3.027-7 7.135-7zm0 11.866h2.806c2.793 0 4.864-2.082 4.864-4.871 0-2.79-2.076-4.871-4.864-4.871h-2.806c-2.797 0-4.881 2.1-4.881 4.87 0 2.772 2.089 4.872 4.88 4.872zm-56.302-3.1c-.605 1.915-2.206 3.077-4.273 3.077h-2.81c-2.707 0-4.694-2.024-4.694-4.838s1.987-4.849 4.694-4.849h2.81c2.002 0 3.58 1.085 4.23 2.884h2.244c-.71-3.038-3.273-5.025-6.474-5.025h-2.81c-4 0-6.952 2.955-6.952 6.99s2.951 6.982 6.952 6.982h2.81c3.254 0 5.82-2.043 6.521-5.217l-2.248-.004zm6.808 2.89v-3.777h7.94v-2.03h-7.94v-3.525h8.441v-2.07H23.622v13.491h10.874v-2.09h-8.653zM37.17 9.254h7.58c3.977 0 6.854 2.829 6.854 6.742s-2.882 6.75-6.853 6.75h-7.58V9.253zm2.221 11.426h5.293c2.732 0 4.652-1.958 4.652-4.684s-1.92-4.675-4.652-4.675h-5.293v9.359zm24.2-3.24a4.09 4.09 0 002.75-3.918c0-2.487-1.935-4.268-4.54-4.268h-8.077v13.491h2.221v-4.993h5.37l2.904 4.993h2.492l-3.12-5.304zm-1.92-1.758h-5.726v-4.358h5.726c1.464 0 2.411.927 2.411 2.18 0 1.251-.94 2.178-2.411 2.178z" fill="#D0BC7A"/></svg>